<!--?xml version="1.0" encoding="utf-8"?-->
<!-- Generator: Adobe Illustrator 19.1.1, SVG Export Plug-In . SVG Version: 6.00 Build 0)  -->
<svg version="1.1" id="_x31_0" xmlns="http://www.w3.org/2000/svg" xmlns:xlink="http://www.w3.org/1999/xlink" x="0px" y="0px" viewBox="0 0 512 512" style="width: 64px; height: 64px; opacity: 1;" xml:space="preserve">
<style type="text/css">
	.st0{fill:#374149;}
</style>
<g>
	<path class="st0" d="M84.48,444.042l-0.078,0.074c-0.008-0.066-0.023-0.129-0.031-0.191l-16.148,15.004l-2.066,1.906l-0.059,0.05
		h0.004l-0.121,0.11l2.125,2.183l14.715,14.715l1.152,1.148l1.035-1.148l1.031-1.153l6.442-6.894
		c-3.559-6.176-6.18-13.71-7.492-21.898C84.808,446.647,84.578,445.358,84.48,444.042z" style="fill: rgb(75, 75, 75);"></path>
	<path class="st0" d="M128.468,317.05c0.058-0.706,0.066-1.418,0.14-2.117l-0.042,0.008c0-0.055,0.004-0.114,0.008-0.164
		L8.39,342.308l-2.687,0.566l-0.149,0.023l0.004,0.008l-0.156,0.031l0.801,2.992l5.004,18.679l0.805,2.93l2.93-0.918l113.23-34.832
		C128.07,326.68,128.214,321.753,128.468,317.05z" style="fill: rgb(75, 75, 75);"></path>
	<path class="st0" d="M112.546,379.198c0.098-0.078,0.195-0.16,0.297-0.238c2-1.524,4.015-2.821,6.027-3.993
		c0.644-0.37,1.289-0.758,1.945-1.102c1.328-0.702,2.657-1.332,3.977-1.898c1.886-0.797,3.793-1.542,5.758-2.105
		c0.258-0.078,0.524-0.18,0.782-0.254c-0.73-4.582-1.344-9.519-1.84-14.546c-0.058-0.848-0.172-1.719-0.211-2.555l-0.058,0.031
		c-0.004-0.058-0.012-0.113-0.015-0.171l-98.574,52.187l-2.489,1.269l-0.07,0.031v0.004l-0.141,0.074l1.492,2.703l9.711,16.722
		l1.496,2.645l2.586-1.61l58.57-36.726C105.277,385.46,108.89,382.019,112.546,379.198z" style="fill: rgb(75, 75, 75);"></path>
	<path class="st0" d="M134.174,283.16c0.215-0.582,0.367-1.223,0.598-1.79h-0.043c0.019-0.05,0.031-0.11,0.05-0.16L3.043,276.379
		l-2.778-0.102l-0.106-0.012v0.004L0,276.265v25.465l3.043-0.117l127.6-4.657C131.542,291.906,132.753,287.402,134.174,283.16z" style="fill: rgb(75, 75, 75);"></path>
	<path class="st0" d="M8.39,235.688l134.034,30.695c2.5-3.617,5.582-6.902,9.008-10.023c0.808-0.695,1.519-1.477,2.382-2.125
		l-0.09-0.028c0.05-0.038,0.086-0.086,0.137-0.125L14.942,211.376l-2.633-0.879l-0.145-0.054v0.008l-0.152-0.051l-0.805,2.988
		l-5.004,18.68l-0.719,2.687l-0.05,0.145l0.008,0.004l-0.039,0.152L8.39,235.688z" style="fill: rgb(75, 75, 75);"></path>
	<path class="st0" d="M68.222,119.068l92.995,86.39c-0.687-6.554-0.574-13.683,1.61-20.406c-0.114-0.516-0.172-0.977-0.227-1.496
		l-76.562-82.363l-1.882-2.042l-0.07-0.086l-0.004,0.004l-0.11-0.117l-15.867,15.866l-1.961,2.016l-0.054,0.047l0.004,0.003
		l-0.114,0.114L68.222,119.068z" style="fill: rgb(75, 75, 75);"></path>
	<path class="st0" d="M30.633,173.442l135.761,71.847c0.976-0.637,2.011-1.211,3.046-1.785c0.226-1.207,0.457-2.414,0.688-3.622
		c-1.035-3.106-2.414-7.242-3.563-10.922L43.218,151.599l-2.285-1.473l-0.161-0.118l-0.003,0.012l-0.137-0.086l-1.496,2.702
		l-9.711,16.723l-1.379,2.441l-0.039,0.062h0.004l-0.078,0.141L30.633,173.442z" style="fill: rgb(75, 75, 75);"></path>
	<path class="st0" d="M118.628,76.248l47.648,75.929c1.153-4.773,3.39-9.258,6.492-13.046c0.75-2.821,1.898-5.52,3.394-7.992
		l-35.75-67.476l-1.23-2.458l-0.066-0.164l-0.011,0.008l-0.07-0.145l-2.645,1.547l-16.785,9.66l-2.398,1.41l-0.11,0.054l0.004,0.004
		l-0.141,0.082L118.628,76.248z" style="fill: rgb(75, 75, 75);"></path>
	<path class="st0" d="M178.346,47.912l17.758,57.766c3.91-3.91,8.851-6.782,14.199-8.278c1.438-1.094,2.988-2.011,4.598-2.816
		L202.714,41.42l-0.626-2.718l-0.019-0.118h-0.004l-0.039-0.156l-2.93,0.809l-18.738,4.996l-2.629,0.672l-0.148,0.031v0.007
		l-0.156,0.039L178.346,47.912z" style="fill: rgb(75, 75, 75);"></path>
	<path class="st0" d="M243.408,36.072l1.844,50.406h0.168c3.218-1.09,6.61-1.606,10.117-1.606c3.45,0,6.84,0.57,10.059,1.606
		c0.402-0.054,0.804-0.114,1.148-0.114l1.844-50.292l0.102-2.84l0.011-0.106h-0.007l0.007-0.16h-23.914l-1.39-0.008v0.008h-0.16
		L243.408,36.072z" style="fill: rgb(75, 75, 75);"></path>
	<path class="st0" d="M315.713,106.252l17.937-58.34l0.825-2.629l0.054-0.145l-0.008-0.003l0.047-0.153l-2.989-0.75L312.9,39.236
		l-2.672-0.734l-0.106-0.035v0.004l-0.156-0.043l-0.691,2.992l-12.242,53.566c1.383,0.691,2.645,1.496,3.852,2.414
		C306.517,98.896,311.693,101.997,315.713,106.252z" style="fill: rgb(75, 75, 75);"></path>
	<path class="st0" d="M345.142,153.095l48.226-76.847l1.52-2.363l0.066-0.086l-0.008-0.003l0.086-0.133l-2.644-1.551l-16.786-9.66
		l-2.394-1.402l-0.106-0.07l-0.004,0.008l-0.137-0.082l-1.437,2.758l-36.039,68.109c1.266,2.301,2.242,4.77,2.988,7.359
		C341.751,143.149,344.052,147.981,345.142,153.095z" style="fill: rgb(75, 75, 75);"></path>
	<path class="st0" d="M350.716,205.512l93.058-86.445l2.039-1.883l0.086-0.07l-0.004-0.008l0.117-0.11l-15.863-15.859l-1.91-1.965
		l-0.098-0.114l-0.008,0.004l-0.11-0.113l-2.07,2.242l-77.132,82.996C351.29,191.141,351.521,198.618,350.716,205.512z" style="fill: rgb(75, 75, 75);"></path>
	<path class="st0" d="M443.774,458.928l-10.015-9.305l-6.035-5.742c-0.004,0.039-0.015,0.078-0.019,0.118l-0.141-0.133
		c-0.977,9.773-3.906,18.738-8.047,25.922l6.438,6.953l2.07,2.301l1.09-1.148l16.191-16.191l0.598-0.59l-0.004-0.004l0.113-0.113
		L443.774,458.928z" style="fill: rgb(75, 75, 75);"></path>
	<path class="st0" d="M481.363,404.554l-71.042-37.59l-27.429-14.586c0,0.024-0.004,0.047-0.008,0.066l-0.153-0.078
		c-0.515,5.976-1.266,11.781-2.125,17.242c1.11,0.317,2.23,0.688,3.355,1.09c0.262,0.094,0.52,0.195,0.782,0.293
		c2.281,0.851,4.586,1.874,6.898,3.133c0.074,0.039,0.145,0.086,0.218,0.125c4.922,2.699,9.867,6.379,14.645,11.336
		c0.039,0.042,0.078,0.086,0.121,0.129c1.184,1.238,2.359,2.55,3.524,3.953l58.57,36.726l2.586,1.61l1.547-2.645l9.66-16.722
		l1.398-2.442l0.078-0.121h-0.004l0.078-0.141L481.363,404.554z" style="fill: rgb(75, 75, 75);"></path>
	<path class="st0" d="M341.81,239.883c0.23,1.207,0.462,2.414,0.692,3.622c1.031,0.574,2.066,1.148,3.042,1.785l135.819-71.847
		l2.458-1.309l0.105-0.046l-0.003-0.004l0.14-0.078l-1.55-2.644l-9.66-16.723l-1.398-2.441l-0.062-0.129l-0.008,0.003l-0.078-0.136
		l-2.586,1.664L345.314,229.02C344.224,232.641,342.9,236.723,341.81,239.883z" style="fill: rgb(75, 75, 75);"></path>
	<path class="st0" d="M503.547,342.308l-93.422-21.402l-26.601-6.141c0,0.016,0,0.031,0,0.047l-0.161-0.035
		c0.344,5.343,0.52,11.09,0.402,17.011l113.289,34.832l2.93,0.918l0.746-2.93l5.058-18.679l0.684-2.738l0.031-0.094l-0.008-0.004
		l0.039-0.156L503.547,342.308z" style="fill: rgb(75, 75, 75);"></path>
	<path class="st0" d="M358.177,253.957c0.027,0.023,0.047,0.046,0.074,0.07l-0.176,0.054c4.539,3.734,8.336,7.813,11.438,12.301
		l134.034-30.695l2.718-0.574l0.118-0.019l-0.004-0.004l0.156-0.035l-0.746-2.988l-5.058-18.68l-0.656-2.629l-0.039-0.207h-0.012
		l-0.038-0.152l-2.93,0.977l-89.171,27.398L358.177,253.957z" style="fill: rgb(75, 75, 75);"></path>
	<path class="st0" d="M512,276.426h-0.004v-0.161l-3.046,0.114l-99.254,3.637l-32.445,1.141c0.004,0.015,0.008,0.031,0.015,0.046
		l-0.168,0.008c1.786,4.77,3.106,9.942,4.137,15.746l127.714,4.657l3.046,0.117v-24.41L512,276.426z" style="fill: rgb(75, 75, 75);"></path>
	<path class="st0" d="M403.712,410.534c-9.946-17.187-23.047-25.867-38.851-25.867h-1.438c-0.118-0.23-0.23-0.519-0.406-0.75
		c-0.633-1.262-1.379-2.582-2.125-3.965c1.378-5.23,2.586-11.782,3.562-18.965c0.691-5.578,1.266-11.496,1.61-17.473
		c0.347-5.75,0.519-11.496,0.519-17.015c-0.058-5.574-0.289-10.977-0.809-15.75c0-0.231-0.054-0.398-0.054-0.63
		c-0.516-5.117-1.207-9.714-2.129-13.851c-1.207-5.519-2.758-10.23-4.883-14.371c-2.07-4.254-4.714-7.87-7.992-11.206
		c-3.562-3.68-7.988-7.012-13.39-10.23c-1.496-0.922-3.102-1.84-4.77-2.762c-1.726-0.914-3.504-1.782-5.347-2.641
		c-0.286-0.172-0.516-0.289-0.801-0.402c-0.118-4.141-0.864-8.508-1.782-12.645c-0.23-1.035-0.461-2.07-0.691-3.105
		c0.746-2.13,2.527-7.414,4.082-12.297c0.805-2.473,1.493-4.832,2.012-6.668c1.434-5.118,3.504-12.531,3.789-19.602
		c0.23-5.574-0.629-10.922-3.675-14.946c1.148-2.242,1.722-4.71,1.722-7.3c0-1.09-0.114-2.184-0.344-3.274
		c-0.574-2.989-2.011-5.746-4.137-7.934c0.918-2.066,1.379-4.309,1.379-6.551c0-3.566-1.149-6.957-3.278-9.714
		c-0.859-1.207-1.898-2.297-3.102-3.218c-0.175-5-2.644-9.657-6.671-12.531c-0.344-4.137-2.469-7.871-5.63-10.344
		c-1.206-0.977-2.644-1.782-4.136-2.297c-2.062-4.523-6.317-7.668-11.215-8.43c-0.598-0.125-1.168-0.313-1.785-0.375
		c-0.043-0.054-0.082-0.125-0.164-0.164c-2.989-3.39-7.184-5.23-11.84-4.942c-1.551-1.668-3.45-2.988-5.519-3.851
		c-1.09-0.402-2.242-0.75-3.45-0.918c-2.012-0.29-3.965-0.118-5.863,0.398c-0.687,0.171-1.434,0.461-2.125,0.75
		c-4.887-3.453-11.898-3.453-16.84-0.058c-0.402-0.172-0.805-0.344-1.266-0.461c-1.438-0.516-3.043-0.746-4.656-0.746
		c-0.746,0-1.379,0.054-1.836,0.118c-1.266,0.167-2.473,0.515-3.625,0.918c-2.066,0.863-3.965,2.183-5.457,3.851
		c-4.371-0.23-8.391,1.379-11.266,4.309c-0.29,0.289-0.578,0.574-0.805,0.863c-5.691,0.23-10.691,3.68-12.934,8.738
		c-1.262,0.461-2.414,1.09-3.504,1.894c-3.508,2.414-5.863,6.32-6.27,10.746c-4.019,2.874-6.492,7.531-6.664,12.531
		c-1.035,0.746-1.898,1.613-2.703,2.59c-2.355,2.871-3.675,6.492-3.675,10.343c0,2.242,0.457,4.485,1.378,6.551
		c-1.898,1.953-3.277,4.367-3.969,7.011c-0.398,1.383-0.574,2.762-0.574,4.196c0,2.762,0.746,5.461,2.011,7.933
		c-2.703,3.906-3.449,9.024-3.218,14.254c0.289,7.129,2.359,14.601,3.797,19.714c0.515,1.782,1.207,4.141,2.011,6.554
		c1.547,4.883,3.329,10.226,4.078,12.356c-0.23,0.976-0.461,2.011-0.687,3.046c-0.922,4.195-1.668,8.621-1.786,12.758
		c-0.23,0.118-0.515,0.23-0.746,0.348c-1.894,0.805-3.68,1.726-5.344,2.641c-1.668,0.922-3.278,1.839-4.828,2.762
		c-5.402,3.277-9.774,6.55-13.394,10.23c-3.274,3.336-5.863,6.953-7.988,11.206c-2.07,4.141-3.68,8.852-4.828,14.371
		c-0.922,4.137-1.668,8.734-2.184,13.851c0,0.231-0.058,0.398-0.058,0.63c-0.516,4.773-0.691,10.121-0.746,15.691
		c-0.054,5.519,0.114,11.324,0.516,17.074c0.347,5.977,0.863,11.894,1.613,17.473c0.914,7.183,2.126,13.679,3.562,18.965
		c-0.804,1.382-1.554,2.758-2.242,4.023c-0.118,0.23-0.23,0.461-0.344,0.691h-1.383c-15.862,0-28.968,8.68-38.91,25.867
		c-3.277,5.629-5.23,11.375-6.148,16.953c-1.958,10.918-0.118,21.153,2.93,28.851c1.266,3.161,2.762,5.864,4.254,7.993l4.023,5.633
		h285.37l4.023-5.633c1.55-2.188,2.988-4.887,4.254-8.047c3.102-7.644,4.942-17.934,2.988-28.797
		C408.997,421.909,406.985,416.163,403.712,410.534z M296.006,126.813c0.09,0.223,0.102,0.481,0.145,0.723
		c0.058,0.293,0.102,0.598,0.113,0.93c-0.008,0.11,0,0.218-0.031,0.312c-0.828,0.516-1.496,1.238-2.09,2.016
		c-0.348,0.367-0.695,0.73-1.047,1.05c-0.418-2.254-1.488-4.293-3.129-5.766c0.172-0.343,0.289-0.687,0.344-1.034
		c0.633-0.398,1.378-0.63,2.129-0.63c1.481,0,2.722,0.832,3.367,2.043C295.869,126.583,295.954,126.677,296.006,126.813z
		 M396.411,444.96c-0.977,4.886-2.758,8.965-4.656,11.61h-22.84l-6.746-0.047c0.34-1.074,0.622-2.098,0.848-3.114
		c0.23-0.804,0.406-1.609,0.574-2.414c0.461-1.898,0.746-3.852,1.094-5.75c0.289-1.953,0.519-3.851,0.746-5.804
		c0.406-4.137,0.574-7.93,0.519-11.555c0-1.262-1.153-2.297-2.59-2.297c-1.375,0-2.528,0.922-2.641,2.07
		c-0.348,3.39-0.977,7.012-1.84,11.035c-0.461,1.84-0.859,3.621-1.379,5.461c0,0.114-0.058,0.172-0.058,0.289
		c-0.519,1.664-1.035,3.45-1.668,5.114c-0.574,1.84-1.32,3.68-2.011,5.289c-0.172,0.516-0.398,0.977-0.688,1.492
		c-0.058,0.055-0.058,0.118-0.117,0.231h-15.383l-4.777-0.051c0.336-1.015,0.566-1.977,0.734-2.938
		c0.343-1.438,0.574-2.874,0.805-4.312c0.23-1.375,0.402-2.758,0.574-4.137v-0.172c0.29-3.106,0.402-5.918,0.402-8.621
		c0-1.153-0.976-2.012-2.297-2.012c-1.207,0-2.187,0.746-2.301,1.782c-0.058,0.289-0.058,0.574-0.117,0.918
		c-0.286,2.242-0.629,4.656-1.262,7.242c-0.286,1.382-0.633,2.703-0.977,4.023c-0.406,1.379-0.805,2.703-1.266,4.023
		c-0.461,1.379-0.977,2.703-1.492,3.91c-0.059,0.113-0.118,0.23-0.176,0.344h-59.945c-5.922,0-9.484,0-9.484,0s-3.563,0-9.485,0
		h-19.078l-41.074-0.344c-0.007-0.023-0.015-0.035-0.023-0.058c-0.461-1.149-1.039-2.473-1.496-3.852
		c-0.461-1.32-0.863-2.644-1.266-4.023c-0.344-1.32-0.633-2.641-0.977-4.023c-0.574-2.586-0.976-5-1.266-7.242
		c-0.054-0.344-0.054-0.629-0.113-0.918c-0.118-1.035-1.094-1.782-2.301-1.782c-1.266,0-2.297,0.859-2.297,2.012
		c0,2.703,0.171,5.515,0.457,8.621c0,0.058,0,0.058,0,0.114c0.117,1.382,0.289,2.82,0.519,4.195c0.23,1.438,0.516,2.874,0.805,4.312
		c0.195,0.844,0.41,1.723,0.645,2.578c0.019,0.145,0.058,0.258,0.074,0.41h-20.09c-0.058-0.114-0.113-0.176-0.171-0.231
		c-0.23-0.515-0.462-0.976-0.692-1.55c-0.687-1.55-1.438-3.39-2.007-5.23c-0.578-1.664-1.094-3.39-1.614-5.058
		c-0.054-0.114-0.054-0.23-0.114-0.344c-0.457-1.84-0.863-3.621-1.324-5.461c-0.859-4.023-1.492-7.645-1.894-11.035
		c-0.114-1.148-1.207-2.07-2.586-2.07c-1.497,0-2.645,1.035-2.645,2.297c0,3.626,0.172,7.418,0.578,11.555
		c0.168,1.953,0.398,3.851,0.746,5.804c0.286,1.898,0.629,3.852,1.031,5.75c0.176,0.805,0.348,1.664,0.574,2.469
		c0.258,0.922,0.485,1.84,0.766,2.762c0.019,0.121,0.054,0.211,0.066,0.344h-29.57c-0.441-0.618-0.878-1.329-1.301-2.09
		c-0.062-0.113-0.121-0.226-0.183-0.34c-1.305-2.449-2.457-5.546-3.172-9.121c-1.722-7.934-1.32-18.109,4.258-27.762
		c9.25-15.98,19.137-19.199,27.355-19.199c3.395,0,6.555,0.574,9.258,0.981c0,0,3.445-7.82,9.25-17.648
		c-1.035-2.414-2.012-5.918-2.871-10.29c-1.094-5.058-2.011-11.265-2.703-17.988c-0.574-5.289-0.976-10.863-1.148-16.496
		c-0.176-4.773-0.23-9.598-0.058-14.254c0.058-3.738,0.289-7.355,0.691-10.805c0.113-1.382,0.285-2.703,0.457-3.969
		c0.578-4.538,1.266-8.39,2.242-11.839c1.438-5.402,3.449-9.657,6.382-13.278c2.356-2.988,5.286-5.574,9.02-7.988
		c2.414-1.722,5.117-3.332,8.164-5c1.035-0.574,2.125-1.149,3.277-1.668c0.977,1.149,2.125,2.183,3.504,3.047
		c2.59,1.667,5.691,2.527,8.969,2.527c1.879,0,3.699-0.313,5.446-0.797c0.179-0.035,0.347-0.055,0.531-0.09
		c-0.059,2.809-0.114,5.726-0.176,8.762c0,0.863-0.054,1.723-0.054,2.59c-0.059,3.328-0.114,6.781-0.231,10.289
		c0,0.859,0,1.722-0.058,2.641c-0.054,3.621-0.113,7.242-0.113,10.804c-0.059,1.207-0.059,2.414-0.059,3.622
		c-0.054,4.426-0.113,8.679-0.113,12.648c-0.058,2.238-0.058,4.363-0.058,6.434v0.461c0,5.286,0,10.633,0.23,15.922
		c0.109,1.938,0.426,3.801,0.621,5.707c0.047,0.446,0.094,0.89,0.145,1.324c0.195,1.711,0.266,3.477,0.558,5.153
		c0.859,5.23,2.297,10.175,4.539,14.714c0.343,0.688,0.687,1.379,1.094,2.07c2.297,4.137,5.226,7.586,8.793,10.402
		c3.617,2.934,7.988,5.172,12.988,6.722c3.969,1.266,8.278,2.07,13.106,2.473c2.297,0.172,4.711,0.289,7.242,0.289
		c2.527,0,4.882-0.117,7.183-0.289c4.828-0.402,9.195-1.207,13.16-2.473c5.004-1.55,9.371-3.789,12.992-6.722
		c3.566-2.817,6.496-6.266,8.793-10.402c0.402-0.691,0.75-1.382,1.09-2.07c2.187-4.539,3.625-9.542,4.488-14.77
		c0.289-1.683,0.359-3.449,0.558-5.164c0.051-0.43,0.098-0.867,0.141-1.308c0.195-1.906,0.512-3.774,0.621-5.715
		c0.23-5.23,0.23-10.578,0.23-15.863v-0.515c0-2.07,0-4.195-0.058-6.438c0-3.969,0-8.222-0.117-12.59c0.058-1.207,0-2.414,0-3.622
		c-0.055-3.562-0.114-7.183-0.114-10.804c-0.058-0.918-0.058-1.782-0.058-2.641c-0.114-3.508-0.172-6.961-0.226-10.289
		c0-0.867-0.059-1.727-0.059-2.59c-0.046-2.453-0.094-4.777-0.14-7.086l0.015-1.695c1.883,0.621,3.82,0.906,5.875,0.906
		c3.274,0,6.434-0.86,8.906-2.469c1.437-0.922,2.586-1.957,3.503-3.106c1.153,0.519,2.301,1.094,3.336,1.668
		c3.102,1.668,5.805,3.278,8.219,5c3.734,2.473,6.664,5.058,8.968,7.988c2.93,3.621,4.942,7.875,6.434,13.278
		c0.922,3.449,1.668,7.301,2.242,11.839c0.172,1.266,0.348,2.586,0.461,3.969c0.344,3.45,0.574,7.066,0.633,10.805
		c0.172,4.598,0.172,9.367-0.058,14.195c-0.172,5.633-0.574,11.266-1.148,16.554c-0.692,6.668-1.61,12.817-2.645,17.934
		c-0.863,4.367-1.898,7.93-2.875,10.344c5.75,9.828,9.199,17.648,9.199,17.648c2.699-0.406,5.859-0.981,9.313-0.981
		c8.214,0,18.042,3.219,27.3,19.199C397.735,426.909,398.134,437.026,396.411,444.96z M198.807,154.876
		c0.633,0,1.266,0.114,1.84,0.29c1.496,0.515,2.703,1.668,3.218,3.16c0.285,0.629,0.402,1.266,0.402,2.011
		c0,2.817-2.184,5.118-4.942,5.402h-0.519c-2.988,0-5.461-2.414-5.461-5.402c0-2.59,1.781-4.71,4.14-5.289
		C197.948,154.876,198.35,154.876,198.807,154.876z M213.92,135.427c0.016,0.062,0.051,0.106,0.066,0.172
		c0.008,0.16,0.055,0.324,0.055,0.539c0,1.668-1.094,3.105-2.645,3.621c-1.324-1.031-2.875-1.722-4.598-1.953
		c-0.23-0.516-0.406-1.09-0.406-1.668c0-2.126,1.726-3.848,3.852-3.848c0.289,0,0.574,0,0.863,0.114
		C212.553,132.74,213.639,133.9,213.92,135.427z M266.362,119.24c-0.102-0.336-0.192-0.676-0.192-1.035
		c0-2.125,1.726-3.848,3.852-3.848c2.07,0,3.793,1.723,3.793,3.848c0,1.898-1.438,3.511-3.336,3.738
		c-1.031-0.688-2.18-1.149-3.446-1.379c-0.058,0-0.058,0-0.058,0c-0.191-0.289-0.344-0.606-0.48-0.93
		C266.443,119.501,266.4,119.372,266.362,119.24z M296.865,143.782l0.055,0.058c0.633,0.516,1.206,1.207,1.55,2.012c0,0,0,0,0,0.058
		c0.23,0.633,0.406,1.379,0.406,2.126v0.574c-0.058,0.574-0.23,1.094-0.406,1.551c-0.398,0.922-1.031,1.668-1.836,2.242
		c-0.863,0.691-1.957,1.094-3.218,1.094c-2.993,0-5.402-2.473-5.402-5.461c0-0.516,0.054-0.977,0.168-1.379
		c0.637-2.355,2.762-4.082,5.234-4.082c0.918,0,1.664,0.172,2.414,0.574c0.226,0.23,0.516,0.402,0.805,0.52c0,0,0,0,0,0.054
		C296.689,143.724,296.748,143.782,296.865,143.782z M313.701,155.048c2.418,0.578,4.141,2.699,4.141,5.289
		c0,2.93-2.297,5.286-5.23,5.402h-0.172c-3.047,0-5.461-2.414-5.461-5.402c0-0.746,0.113-1.382,0.402-2.011
		c0.633-1.668,2.07-2.989,3.91-3.336c0.344-0.114,0.746-0.114,1.149-0.114C312.9,154.876,313.302,154.876,313.701,155.048z
		 M227.545,128.321c0.29-0.058,0.52-0.113,0.809-0.113c1.09,0,2.066,0.343,2.871,0.859c0.805,0.461,1.438,1.148,1.84,1.898
		c0.343,0.687,0.633,1.378,0.691,2.125c-3.106,0.75-5.75,2.875-7.015,5.75c-0.746-0.231-1.438-0.634-2.012-1.149
		c-0.633-0.578-1.09-1.266-1.438-2.016c-0.23-0.629-0.398-1.32-0.398-2.011c0-0.286,0-0.574,0.058-0.805
		c0.055-0.457,0.226-0.918,0.398-1.317c0.23-0.519,0.52-1.038,0.918-1.437c0.176-0.23,0.406-0.462,0.637-0.692
		c0.457-0.347,0.976-0.637,1.492-0.863C226.799,128.439,227.142,128.38,227.545,128.321z M225.881,148.036
		c0,2.988-2.472,5.461-5.465,5.461c-2.297,0-4.25-1.438-5.054-3.504c-0.23-0.52-0.344-1.098-0.344-1.726v-0.23
		c0-0.688,0.114-1.379,0.344-1.954c0.805-2.07,2.758-3.508,5.054-3.508c2.414,0,4.43,1.555,5.176,3.738
		C225.764,146.829,225.881,147.404,225.881,148.036z M229.268,157.348c0.691-0.691,1.382-1.438,1.898-2.242
		c1.554,0.633,3.218,0.977,4.945,0.977c4.172,0,8.004-2.054,10.359-5.301c0.016-0.015,0.032-0.027,0.043-0.043
		c0.344,0.344,0.746,0.633,1.09,0.918c2.242,1.781,5.063,2.816,7.934,2.816c3.336,0,6.438-1.32,8.852-3.503
		c0.054-0.114,0.164-0.168,0.222-0.223c0.004-0.004,0.008-0.004,0.008-0.004c2.301,3.27,6.207,5.34,10.402,5.34
		c2.531,0,5-0.746,7.011-2.125c0.29,0.574,0.633,1.148,1.094,1.668c2.298,3.218,6.094,5.285,10.29,5.285
		c1.965,0,3.918-0.5,5.64-1.386c0.172-0.066,0.332-0.098,0.508-0.168v0.98c0,4.196,2.07,8.106,5.402,10.461
		c-1.438,2.07-2.301,4.653-2.301,7.298c0,0.363,0.062,0.679,0.102,1.011c-0.035,0.203-0.11,0.402-0.218,0.602
		c-0.278-0.156-0.688-0.386-1.321-0.805c-0.574-0.289-1.203-0.691-1.953-1.148c-0.805-0.461-1.606-1.039-2.641-1.438
		c-0.633-0.348-1.382-0.691-2.183-1.035c-0.29-0.176-0.637-0.289-0.981-0.461c-1.094-0.574-2.414-0.922-3.676-1.379
		c-0.637-0.23-1.324-0.519-1.957-0.691c-0.746-0.114-1.438-0.289-2.183-0.457c-0.692-0.118-1.438-0.29-2.13-0.406l-2.238-0.23
		c-0.633-0.055-1.266-0.055-1.84-0.055c-0.918,0.055-1.782,0.114-2.699,0.114c-0.809,0.058-1.496,0.289-2.242,0.402
		c-0.746,0.176-1.438,0.289-2.129,0.574c-0.746,0.23-1.379,0.461-2.066,0.691c-0.633,0.344-1.207,0.633-1.84,0.922
		c-1.152,0.629-2.242,1.375-3.164,2.066c-0.746,0.516-1.375,1.094-1.953,1.668c-0.172,0.114-0.29,0.286-0.461,0.461
		c-0.688,0.692-1.203,1.379-1.664,1.894c-0.402,0.574-0.75,0.977-0.977,1.379c-0.172,0.348-0.289,0.461-0.289,0.461
		c-0.059,0.055-0.059,0.114-0.059,0.172c-0.691,1.207-0.23,2.703,0.977,3.394c0.691,0.344,1.496,0.398,2.183,0.055
		c0.52-0.172,0.922-0.516,1.211-1.035l0.055-0.172c0,0,0.117-0.114,0.23-0.402c0.117-0.172,0.347-0.52,0.633-0.977
		c0.289-0.402,0.691-0.98,1.206-1.554c0.52-0.516,1.094-1.149,1.782-1.778c0.75-0.578,1.55-1.266,2.473-1.785
		c0.515-0.29,0.922-0.516,1.438-0.859c0.515-0.176,1.09-0.406,1.605-0.633c0.578-0.29,1.153-0.402,1.786-0.52
		c0.574-0.172,1.148-0.402,1.781-0.461c0.402-0.054,0.805-0.114,1.266-0.114c0.863-0.171,1.723-0.23,2.586-0.171l2.011,0.054
		c0.63,0.062,1.321,0.23,1.954,0.289c0.633,0.118,1.266,0.23,1.898,0.29c0.633,0.171,1.266,0.343,1.84,0.515
		c1.262,0.406,2.469,0.574,3.558,1.094c0.406,0.172,0.809,0.344,1.211,0.516c0.633,0.289,1.266,0.519,1.839,0.75
		c0.977,0.344,1.836,0.859,2.527,1.266c0.746,0.398,1.438,0.746,1.954,0.977c1.094,0.57,1.668,0.918,1.668,0.918l0.113,0.059
		c0.52,0.226,1.153,0.054,1.496-0.348c0.574,1.953,1.668,3.793,3.047,5.23c0.114,0.118,0.172,0.172,0.23,0.23
		c0.054,2.125,0.114,4.426,0.114,6.957v8.047c0,3.274-0.059,6.492-0.286,9.711c-0.058,1.206-0.175,2.359-0.289,3.503v0.059
		c-0.691,7.418-2.297,14.37-5.289,20.464c-0.29,0.57-0.574,1.09-0.86,1.668c-0.746,1.375-1.554,2.641-2.472,3.906
		c-0.805,1.035-1.61,2.125-2.586,3.047c-0.23,0.343-0.574,0.633-0.918,0.976c-0.062,0.055-0.118,0.172-0.23,0.231
		c-1.383,1.378-2.934,2.644-4.598,3.793c-0.75,0.515-1.555,0.976-2.359,1.438c-1.321,0.746-2.758,1.437-4.254,2.07
		c-1.438,0.63-2.988,1.203-4.598,1.723c-1.102,0.336-2.293,0.617-3.48,0.902c-0.887,0.21-1.805,0.398-2.73,0.578
		c-2.649,0.508-5.477,0.891-8.528,1.114c-0.633,0.05-1.277,0.086-1.926,0.121c-1.675,0.086-3.378,0.157-5.175,0.157
		c-1.794,0-3.489-0.07-5.157-0.157c-0.675-0.035-1.347-0.074-2.007-0.125c-3.016-0.222-5.805-0.602-8.418-1.098
		c-0.953-0.184-1.89-0.379-2.805-0.598c-1.179-0.282-2.359-0.558-3.457-0.894c-1.606-0.461-3.102-1.035-4.539-1.668
		c-1.492-0.574-2.874-1.262-4.195-2.012c-0.863-0.515-1.668-1.035-2.469-1.55c-1.668-1.149-3.222-2.414-4.656-3.793
		c-0.058-0.059-0.117-0.176-0.23-0.231c-0.289-0.343-0.637-0.633-0.922-0.976c-0.922-0.922-1.782-2.012-2.528-3.047
		c-0.922-1.266-1.785-2.531-2.527-3.906c-0.347-0.578-0.633-1.206-0.922-1.785c-2.988-6.09-4.484-13.046-5.23-20.406v-0.054
		c-0.118-1.152-0.23-2.297-0.289-3.449c-0.23-3.219-0.286-6.438-0.286-9.711v-8.047c0-2.874,0.055-5.402,0.118-7.702
		c1.254-1.434,2.113-3.203,2.633-5.09l0.007,0.004v0.141c0.344,0.633,1.094,0.863,1.723,0.578l0.117-0.059
		c0,0,0.574-0.347,1.668-0.918c0.516-0.23,1.149-0.578,1.954-0.977c0.687-0.406,1.55-0.922,2.527-1.266
		c0.691-0.23,1.438-0.578,2.242-0.922c0.29-0.118,0.516-0.226,0.805-0.344c1.035-0.519,2.301-0.687,3.508-1.094
		c0.629-0.172,1.207-0.344,1.836-0.515c0.691-0.059,1.324-0.172,1.957-0.29c0.633-0.058,1.321-0.226,1.954-0.289l1.953-0.054
		c1.035-0.114,2.07,0.054,3.046,0.23c0.29,0,0.516,0.054,0.805,0.054c0.688,0.058,1.207,0.289,1.898,0.461
		c0.574,0.118,1.149,0.23,1.664,0.52c0.578,0.226,1.094,0.457,1.614,0.633c0.516,0.343,0.977,0.57,1.434,0.859
		c0.977,0.519,1.785,1.207,2.473,1.785c0.691,0.629,1.32,1.262,1.84,1.778c0.515,0.574,0.863,1.152,1.206,1.554
		c0.286,0.457,0.516,0.805,0.633,0.977c0.114,0.289,0.172,0.402,0.172,0.402l0.058,0.172c0.055,0,0.055,0.058,0.055,0.058
		c0.148,0.274,0.465,0.316,0.703,0.5c0.07,0.054,0.133,0.11,0.218,0.156c0.25,0.149,0.418,0.442,0.687,0.492
		c0.634,0.118,1.325,0,1.899-0.343c0.25-0.153,0.304-0.45,0.476-0.668c0.047-0.058,0.09-0.118,0.129-0.184
		c0.496-0.773,0.695-1.726,0.195-2.598c0,0-0.109-0.113-0.285-0.461c-0.285-0.402-0.574-0.805-1.031-1.379
		c-0.461-0.515-0.922-1.202-1.614-1.894l-0.054-0.058c-0.691-0.687-1.438-1.379-2.355-2.07c-0.977-0.691-1.954-1.438-3.164-2.066
		c-0.633-0.289-1.266-0.578-1.84-0.922c-0.691-0.23-1.379-0.461-2.066-0.691c-0.691-0.286-1.438-0.398-2.129-0.574
		c-0.746-0.114-1.492-0.344-2.242-0.402c-0.746,0-1.492-0.058-2.238-0.058c-0.75-0.055-1.496-0.114-2.301,0l-2.242,0.23
		c-0.746,0.117-1.438,0.289-2.184,0.406c-0.687,0.168-1.378,0.343-2.125,0.457c-0.691,0.172-1.324,0.461-1.957,0.691
		c-1.262,0.457-2.586,0.805-3.734,1.379c-0.172,0.058-0.348,0.172-0.52,0.23c-0.918,0.461-1.84,0.859-2.64,1.266
		c-0.977,0.398-1.844,0.977-2.59,1.438c-0.746,0.457-1.438,0.859-1.953,1.148c-1.035,0.688-1.668,1.035-1.668,1.035
		c-0.102,0.051-0.153,0.145-0.203,0.207l-0.019-0.031c0.054-0.672,0.168-1.344,0.168-2.019c0-2.645-0.864-5.172-2.301-7.298v-0.058
		c3.332-2.355,5.402-6.206,5.402-10.402c0-0.301-0.027-0.602-0.042-0.902l0.203-0.43c0.191-0.109,0.378-0.206,0.59-0.336
		c0.114-0.113,0.285-0.171,0.398-0.285c2.187,1.606,4.828,2.527,7.586,2.527C223.752,160.911,226.916,159.591,229.268,157.348z
		 M280.022,129.068c0.804-0.516,1.839-0.859,2.874-0.859c0.286,0,0.516,0.054,0.805,0.113c0.402,0.058,0.746,0.118,1.149,0.23
		c0.519,0.226,0.98,0.516,1.438,0.863c0.23,0.23,0.519,0.462,0.691,0.692c0.687,0.746,1.148,1.722,1.266,2.754
		c0,0.058,0.054,0.117,0.054,0.23c0,0.176,0.058,0.344,0.058,0.574c0,0.691-0.175,1.382-0.461,2.011
		c-0.113,0.29-0.23,0.52-0.402,0.75c-0.633,1.207-1.781,2.07-3.046,2.473c-1.321-2.875-3.852-5.004-7.012-5.75
		c0.118-0.805,0.344-1.496,0.75-2.183C278.584,130.216,279.217,129.528,280.022,129.068z M255.134,136.138h0.977c0,0,0,0,0.058,0
		c2.242,0.289,4.141,1.898,4.598,4.082c0.172,0.402,0.231,0.805,0.231,1.262v0.118c0,2.988-2.414,5.406-5.462,5.406
		c-2.934,0-5.343-2.36-5.402-5.348v-0.058c0-0.458,0.058-0.918,0.171-1.325C250.822,138.036,252.779,136.309,255.134,136.138z
		 M214.787,322.761v-3.965c0-3.789,0.059-7.758,0.114-11.84c0-0.633,0-1.262,0.058-1.894c0.058-3.332,0.118-6.726,0.118-10.117
		v-1.09c0.054-3.278,0.113-6.555,0.23-9.715v-1.035c0.054-3.508,0.113-6.894,0.226-10.058c0-0.574,0-1.149,0.058-1.722
		c0-1.383,0-2.645,0.054-3.91c0.29-0.344,0.637-0.633,0.864-0.922c1.206-1.379,2.183-2.813,2.992-4.367
		c0.226-0.458,0.457-0.977,0.687-1.434c0.344,0.172,0.688,0.343,1.035,0.574c0.629,0.285,1.266,0.574,1.894,0.918l0.118,0.863
		l0.113,1.551l1.379,13.621l0.519,0.691c0.402,0.687,11.551,16.781,30.75,16.781c19.136,0,30.289-16.094,30.75-16.781l0.457-0.691
		l1.438-13.621l0.117-1.551l0.114-0.863c0.633-0.344,1.266-0.633,1.898-0.977c0.344-0.172,0.691-0.343,1.031-0.515
		c0.176,0.457,0.406,0.976,0.691,1.434c0.336,0.703,0.883,1.312,1.325,1.973c0.019,0.027,0.035,0.054,0.058,0.086
		c0.515,0.77,0.942,1.582,1.55,2.309c0.286,0.289,0.574,0.578,0.918,0.922c0,1.266,0.058,2.527,0.058,3.91
		c0.054,0.574,0.054,1.148,0.054,1.722c0.059,3.164,0.118,6.55,0.176,10.058v1.035c0.114,3.16,0.172,6.438,0.23,9.715v1.09
		c0.055,3.39,0.114,6.785,0.168,10.175c0,0.63,0,1.266,0.062,1.836c0.055,4.082,0.055,8.051,0.114,11.84v3.965
		c0.054,2.82,0.054,5.461,0.054,7.992c0,2.527,0,5-0.054,7.473c0,3.278-0.114,6.55-0.289,9.714
		c-0.462,6.84-1.379,13.278-3.504,18.852c-1.496,4.078-3.68,7.699-6.668,10.804c-3.106,3.102-7.07,5.633-12.242,7.298
		c-3.336,1.152-7.187,1.898-11.613,2.242c-2.18,0.23-4.481,0.348-6.894,0.348c-2.473,0-4.77-0.118-6.958-0.348
		c-4.426-0.343-8.277-1.09-11.609-2.242c-5.172-1.665-9.141-4.196-12.184-7.298c-2.988-3.046-5.171-6.726-6.668-10.804
		c-2.129-5.574-3.046-12.012-3.503-18.852c-0.176-3.164-0.29-6.437-0.29-9.714c-0.058-2.473-0.058-4.946-0.058-7.473
		C214.729,328.222,214.729,325.581,214.787,322.761z M281.858,265.004l-1.145,10.801c-2.07,2.703-11.035,13.164-24.714,13.164
		c-13.622,0-22.703-10.519-24.774-13.218l-1.09-10.805c7.469,2.414,16.148,3.676,25.863,3.676c8.675,0,16.433-1.062,23.366-2.996
		C280.193,265.414,281.049,265.234,281.858,265.004z M320.025,215.114c-0.172,0.687-0.344,1.374-0.515,1.953
		c-1.723,6.32-6.898,21.207-6.898,21.207c0.171,0.691,0.343,1.437,0.519,2.183c0.516,2.414,1.149,5.117,1.606,7.762
		c0.117,0.691,0.23,1.379,0.347,2.066c0.746,5.23,0.746,9.886-1.609,11.382c-0.27,0.18-0.59,0.274-0.894,0.387
		c-0.348,0.137-0.734,0.23-1.141,0.297c-0.348,0.05-0.684,0.121-1.066,0.121c-0.461,0-0.981-0.058-1.438-0.117
		c-0.637-0.114-1.266-0.286-1.844-0.574c-0.054,0-0.054,0-0.054,0c-0.977-0.461-1.957-1.09-2.817-1.953
		c-0.976-0.922-1.781-2.066-2.414-3.504c-0.516-1.266-0.922-2.703-1.035-4.371c-0.058-0.863-0.058-1.782,0-2.758
		c0.633-0.746,1.266-1.555,1.894-2.301c0,0.515,0.118,1.035,0.406,1.438c0.172,0.289,0.344,0.633,0.515,0.976
		c0.118,0.172,0.23,0.402,0.344,0.578c0.922,1.492,1.84,2.988,3.047,3.156c0.461,0.118,0.922,0,1.438-0.343
		c0.289-0.172,0.461-0.516,0.574-0.918c0.348-0.805,0.402-1.957,0.348-3.332c-0.062-1.266-0.234-2.703-0.461-4.027
		c-0.402-2.527-0.977-4.824-1.149-5.687c2.414-5.058,3.965-10.402,4.828-15.52c1.375-7.702,1.434-14.999,1.434-20.402v-7.184
		c0.691-1.726,1.958-4.082,3.622-4.886c0.402,0,0.804-0.058,1.206-0.23c0.23,0.054,0.462,0.113,0.692,0.172
		c0.574,0.172,1.031,0.515,1.437,0.976C324.97,195.34,322.095,207.809,320.025,215.114z M317.498,183.153
		c-0.519,0.23-1.094,0.347-1.668,0.402h-0.285c-0.633,0-1.153-0.114-1.668-0.286c-1.782-0.574-3.164-2.011-3.622-3.851
		c-0.113-0.458-0.172-0.863-0.172-1.324c0-2.184,1.321-4.137,3.219-4.942c0.113-0.058,0.172-0.114,0.285-0.114
		c0.574-0.23,1.266-0.347,1.958-0.347c2.988,0,5.457,2.414,5.457,5.402C321.002,180.395,319.51,182.348,317.498,183.153z
		 M311.118,149.993c-0.746,0.11-1.496,0.23-2.183,0.515c-1.614,0.574-3.051,1.551-4.199,2.817c-0.687-0.172-1.32-0.461-1.894-0.863
		c0.457-0.922,0.746-1.898,0.863-2.93c0.113-0.516,0.113-0.977,0.113-1.496c0-0.805-0.058-1.551-0.23-2.298
		c-0.113-0.402-0.23-0.75-0.343-1.152c-0.118-0.285-0.23-0.633-0.402-0.918c0.515-0.344,1.031-0.633,1.61-0.863
		c0.515-0.114,1.034-0.231,1.609-0.231c0.286,0,0.574,0.059,0.801,0.118c2.59,0.344,4.656,2.645,4.656,5.344
		C311.517,148.728,311.349,149.356,311.118,149.993z M304.451,137.806c-1.238,0.168-2.352,0.636-3.391,1.234
		c-0.48,0.214-0.949,0.406-1.469,0.667c-0.007,0-0.023-0.003-0.023-0.003c-0.004-0.059-0.004-0.059-0.004-0.059
		c-0.347-0.289-0.746-0.515-1.094-0.746c-0.054,0-0.054,0-0.054,0c-0.746-0.692-1.207-1.668-1.207-2.762
		c0-0.23,0.054-0.402,0.054-0.63c0.23-1.554,1.383-2.762,2.875-3.105c0.285-0.114,0.574-0.114,0.863-0.114
		c2.125,0,3.851,1.722,3.851,3.848C304.853,136.716,304.736,137.29,304.451,137.806z M285.08,123.493
		c-0.688-0.172-1.438-0.23-2.184-0.23c-1.668,0-3.277,0.406-4.656,1.152c-0.172-0.461-0.285-0.922-0.285-1.382
		c0-2.125,1.722-3.793,3.847-3.793c2.012,0,3.68,1.554,3.797,3.562C285.369,123.032,285.252,123.263,285.08,123.493z
		 M280.022,141.024c0.23,0.687,0.406,1.379,0.406,2.183v0.516c-0.058,0.461-0.175,0.981-0.347,1.382
		c-0.75,2.066-2.758,3.504-5.058,3.504c-3.047,0-5.458-2.414-5.458-5.402v-0.113c0.055-2.414,1.664-4.426,3.906-5.118
		c0.457-0.171,0.977-0.23,1.551-0.23c0.402,0,0.805,0.059,1.206,0.176C277.896,138.321,279.33,139.474,280.022,141.024z
		 M264.963,125.275c0.113,0,0.23,0,0.343,0.058c1.383,0.058,2.531,0.574,3.508,1.492c0.977,0.977,1.554,2.359,1.554,3.852
		c0,2.117-1.246,3.93-3.015,4.831c-0.122,0.059-0.207,0.157-0.336,0.207c-0.434,0.18-0.918,0.226-1.398,0.29
		c-0.262,0.042-0.504,0.117-0.786,0.133h-0.503c-1.035-1.84-2.703-3.219-4.598-4.078c-0.171-0.406-0.23-0.922-0.23-1.382
		c0-2.989,2.356-5.402,5.344-5.402H264.963z M255.537,120.564c-2.07,0-3.793-1.722-3.793-3.851c0-2.07,1.723-3.794,3.793-3.794
		c2.126,0,3.852,1.723,3.852,3.794C259.389,118.841,257.662,120.564,255.537,120.564z M251.568,131.943
		c-1.835,0.804-3.445,2.07-4.534,3.793c-0.082,0.082-0.141,0.183-0.203,0.281l-0.238,0.122h-0.309c-2.988,0-5.461-2.473-5.461-5.461
		c0-1.493,0.633-2.875,1.61-3.852c0.976-0.977,2.359-1.55,3.851-1.55h0.402c2.875,0.175,5.058,2.527,5.058,5.402
		C251.744,131.138,251.69,131.599,251.568,131.943z M244.213,120.564c-1.266,0.172-2.414,0.691-3.449,1.379
		c-1.894-0.227-3.332-1.84-3.332-3.738c0-2.125,1.726-3.848,3.793-3.848c2.129,0,3.851,1.723,3.851,3.848
		C245.076,119.068,244.729,119.872,244.213,120.564z M237.721,138.036c0,0,0,0,0.054,0c2.188,0.691,3.797,2.758,3.797,5.171
		c0,0,0,0,0,0.059c-0.062,2.988-2.472,5.343-5.461,5.343c-2.301,0-4.254-1.378-5-3.39c-0.23-0.457-0.343-0.918-0.406-1.438v-0.574
		c0-0.804,0.117-1.437,0.406-2.125c0.688-1.609,2.126-2.875,3.906-3.218c0.344-0.058,0.746-0.118,1.094-0.118
		C236.686,137.747,237.26,137.864,237.721,138.036z M233.1,124.192c-0.031,0.07-0.02,0.145-0.062,0.211
		c-1.43-0.738-3.031-1.141-4.684-1.141c-0.75,0-1.496,0.058-2.187,0.23c-0.145,0.051-0.29,0.078-0.434,0.145
		c-0.031,0.004-0.051,0.008-0.082,0.011v-0.847c0.114-2.008,1.782-3.562,3.793-3.562c2.13,0,3.852,1.668,3.852,3.793
		C233.295,123.419,233.198,123.825,233.1,124.192z M218.955,129.458c-0.41,0.75-0.801,1.523-1.125,2.344
		c-0.461-0.79-1.09-1.5-1.782-2.133c-0.336-0.402-0.683-0.805-1.07-1.25c0-0.074-0.02-0.148-0.02-0.21
		c0-2.13,1.722-3.794,3.793-3.794c0.805,0,1.551,0.231,2.188,0.63c0.054,0.347,0.168,0.691,0.343,1.034
		C220.256,127.001,219.522,128.184,218.955,129.458z M210.245,146.083c-0.114,0.633-0.172,1.266-0.172,1.954
		c0,0.402,0,0.75,0.058,1.148c0,0.18,0.039,0.336,0.07,0.504l-0.086,0.519c-0.062,0.118-0.105,0.25-0.214,0.356
		c-0.633,1.382-1.894,2.359-3.39,2.762c-1.094-1.211-2.469-2.125-3.965-2.762c-0.809-0.286-1.61-0.461-2.414-0.57
		c-0.289-0.578-0.402-1.266-0.402-1.957c0-2.699,2.008-5,4.653-5.344c0.23-0.058,0.519-0.118,0.808-0.118
		c0.918,0,1.723,0.231,2.469,0.633c0.75,0.402,1.438,0.977,1.954,1.668C209.901,145.22,210.073,145.622,210.245,146.083z
		 M201.108,178.095c0,0.058,0,0.058,0,0.117c-0.058,2.066-1.266,3.91-2.989,4.77c-0.633,0.289-1.324,0.519-2.015,0.519
		c-0.114,0.055-0.226,0.055-0.398,0.055c-0.805,0-1.492-0.172-2.129-0.402c-1.954-0.863-3.332-2.817-3.332-5.058
		c0-2.989,2.473-5.402,5.461-5.402c1.09,0,2.066,0.289,2.875,0.804C200.131,174.473,201.108,176.2,201.108,178.095z
		 M192.428,190.684c0.118,0,0.172-0.059,0.23-0.059c0.633,0.118,1.266,0.231,1.895,0.286c0.37,0.203,0.71,0.484,1.031,0.801
		c0.046,0.05,0.098,0.098,0.144,0.145c0.989,1.054,1.726,2.55,2.274,3.773c-0.054,2.012-0.054,4.195-0.054,6.61v0.457
		c0,5.344,0.054,12.703,1.437,20.465c0.918,5.114,2.414,10.457,4.829,15.515c-0.234,0.922-0.809,3.165-1.153,5.633
		c-0.226,1.379-0.402,2.875-0.457,4.196c-0.058,1.382,0.054,2.586,0.457,3.335c0.114,0.286,0.29,0.516,0.52,0.688
		c0.398,0.289,0.746,0.402,1.148,0.402h0.058c1.321-0.055,2.297-1.723,3.274-3.332c0.058-0.118,0.176-0.29,0.23-0.402
		c0.23-0.348,0.402-0.691,0.633-1.035c0.16-0.286,0.195-0.594,0.242-0.894c0.047-0.11,0.09-0.195,0.149-0.317
		c0.617,0.734,1.234,1.516,1.91,2.246c0.055,0.976,0.055,1.894,0,2.758c-0.176,1.668-0.519,3.106-1.035,4.371
		c-0.633,1.438-1.438,2.582-2.414,3.504c-0.863,0.863-1.84,1.492-2.821,1.953c-0.054,0-0.054,0-0.054,0
		c-0.633,0.23-1.207,0.461-1.84,0.574c-0.457,0.058-0.977,0.117-1.492,0.117c-0.375,0-0.726-0.07-1.082-0.125
		c-0.39-0.062-0.754-0.152-1.09-0.281c-0.32-0.118-0.652-0.215-0.934-0.399c-2.359-1.496-2.359-6.094-1.61-11.324
		c0.114-0.691,0.231-1.434,0.344-2.183c0.52-2.645,1.094-5.344,1.668-7.758c0.114-0.75,0.289-1.438,0.461-2.129
		c0,0-5.175-14.887-6.898-21.207c-0.172-0.633-0.343-1.266-0.574-2.012c-2.012-7.301-4.887-19.714-0.86-23.453
		C191.393,191.2,191.854,190.856,192.428,190.684z" style="fill: rgb(75, 75, 75);"></path>
	<path class="st0" d="M220.858,355.925h0.191c23.414-1.504,30.293-13.386,30.641-19.461c0.11-1.469-1.016-2.758-2.488-2.836
		c-1.5-0.078-2.754,1.047-2.836,2.515c-0.215,3.586-5.246,13.114-25.668,14.426c-1.473,0.105-2.594,1.363-2.488,2.835
		C218.287,354.824,219.467,355.925,220.858,355.925z" style="fill: rgb(75, 75, 75);"></path>
	<path class="st0" d="M290.923,355.925h0.161c1.422,0,2.598-1.102,2.679-2.52c0.106-1.472-1.015-2.73-2.488-2.835
		c-20.449-1.313-25.453-10.84-25.668-14.426c-0.082-1.468-1.34-2.594-2.836-2.515c-1.473,0.078-2.598,1.367-2.519,2.836
		C260.631,342.539,267.478,354.421,290.923,355.925z" style="fill: rgb(75, 75, 75);"></path>
	<path class="st0" d="M235.256,371.007v0.004c-0.031,0.02-0.121,0.078-0.133,0.086l0.778,1.07l0.644,0.883l0.051,0.094l0.011-0.008
		l0.094,0.129c0.027-0.023,0.644-0.48,1.874-1.098h34.817c1.234,0.645,1.851,1.074,1.874,1.098l1.582-2.167
		c-0.297-0.215-7.496-5.352-20.879-5.352C243.131,365.745,236.049,370.448,235.256,371.007L235.256,371.007z" style="fill: rgb(75, 75, 75);"></path>
	<path class="st0" d="M246.31,418.256c-1.042,9.074-8.137,9.043-12.605,6.02c-4.414-3-4.684-12.606,2.461-14.157
		c6.351-1.39,14.812,0.352,16.031,0.614c0.015,0.012,0.078,0.031,0.082,0.039v-0.02c0.043,0.008,0.16,0.035,0.16,0.035v-4.496
		c0-4.094-3.32-7.386-7.386-7.386h-23.926c-9.554,0-13.168,7.762-13.168,7.762l-10.199-3.562l-10.254,11.75l-1.434,1.606
		l0.019,0.012l-0.105,0.121c0,0,8.965,5.89,13.758,8.406c13.754,7.602,27.562,10.652,40.222,10.652
		c10.09,0,13.328-2.781,13.328-11.21c0-8.406-0.856-9.102-0.856-9.102S246.47,413.729,246.31,418.256z" style="fill: rgb(75, 75, 75);"></path>
	<path class="st0" d="M314.181,403.104l-10.167,3.562c0,0-3.614-7.762-13.168-7.762H266.92c-4.098,0-7.387,3.293-7.387,7.386v3.531
		l-0.038,0.809c0,0,0.035-0.008,0.038-0.008v0.164c0,0,9.391-2.168,16.27-0.668c7.122,1.551,6.852,11.157,2.438,14.157
		c-4.442,3.023-11.539,3.054-12.606-6.02c-0.16-4.527-6.102-2.918-6.102-2.918s-0.886,0.695-0.886,9.102
		c0,8.43,3.27,11.21,13.355,11.21c12.633,0,26.469-3.05,40.226-10.652c4.386-2.317,12.278-7.442,13.508-8.242
		c0.027-0.011,0.109-0.062,0.121-0.062c0.004,0,0.004,0,0.004,0l-0.012-0.011c0.035-0.02,0.137-0.09,0.137-0.09L314.181,403.104z" style="fill: rgb(75, 75, 75);"></path>
	<path class="st0" d="M192.569,401.53l2.621-2.812c0.86-0.934,1.715-1.902,2.653-3.027l1.871-2.274l-2.328-2.859l-2.246-2.414
		l-1.981-2.942c-0.617-1.046-1.148-2.141-1.738-3.238c-0.618-1.046-1.02-2.273-1.555-3.426c-0.508-1.121-0.965-2.328-1.363-3.535
		c-0.402-1.23-0.91-2.406-1.23-3.637c-0.778-2.492-1.473-4.98-2.09-7.496c-0.641-2.511-1.18-5.086-1.688-7.656
		c-0.507-2.566-0.961-5.137-1.363-7.73c-0.805-5.191-1.473-10.438-1.898-15.656c-0.054-0.672-0.617-1.207-1.285-1.207
		c-0.722,0-1.313,0.562-1.313,1.286c-0.027,5.351,0.188,10.679,0.562,16.003c0.188,2.676,0.426,5.352,0.723,8.004
		c0.293,2.676,0.613,5.324,1.066,8.004c0.406,2.649,0.914,5.324,1.504,7.977c0.238,1.336,0.64,2.648,0.961,3.984
		c0.32,1.336,0.695,2.652,1.152,3.961c0.481,1.313,0.801,2.649,1.39,3.961c0.562,1.313,1.07,2.626,1.711,3.91l2.145,3.851
		l0.242,0.309l0.313,1.082c-0.023,0.035-0.05,0.074-0.074,0.109l-2.141,3.051l-4.359,6.102l-8.945,12.179
		c-0.558,0.746-0.477,1.79,0.191,2.461c0.746,0.723,1.926,0.696,2.649-0.027l10.597-10.816L192.569,401.53z" style="fill: rgb(75, 75, 75);"></path>
	<path class="st0" d="M338.056,415.393l-8.914-12.179l-4.36-6.102l-2.14-3.051c-0.11-0.16-0.215-0.324-0.325-0.48l0.778-1.02
		l2.168-3.851c0.617-1.285,1.125-2.598,1.683-3.91c0.618-1.312,0.938-2.648,1.395-3.961c0.48-1.309,0.855-2.625,1.179-3.961
		c0.317-1.336,0.719-2.648,0.961-3.984c0.59-2.653,1.098-5.328,1.5-7.977c0.43-2.68,0.746-5.328,1.066-8.004
		c0.297-2.652,0.512-5.328,0.726-8.004c0.348-5.324,0.563-10.652,0.563-16.003c-0.028-0.668-0.539-1.23-1.207-1.286
		c-0.719-0.054-1.336,0.481-1.39,1.207c-0.426,5.218-1.098,10.465-1.902,15.656c-0.398,2.594-0.856,5.164-1.363,7.73
		c-0.535,2.57-1.043,5.145-1.684,7.656c-0.617,2.516-1.34,5.004-2.09,7.496c-0.348,1.231-0.832,2.406-1.23,3.637
		c-0.402,1.207-0.859,2.414-1.391,3.535c-0.511,1.153-0.914,2.379-1.527,3.426c-0.59,1.098-1.125,2.192-1.738,3.238l-1.98,2.942
		l-2.25,2.414l-2.328,2.859l1.875,2.274c0.906,1.125,1.766,2.094,2.652,3.027l2.622,2.812l5.242,5.481l10.574,10.816
		c0.641,0.641,1.687,0.75,2.465,0.188c0.828-0.614,1.016-1.794,0.398-2.622H338.056z" style="fill: rgb(75, 75, 75);"></path>
	<path class="st0" d="M268.873,199.114c0.402-0.027,0.828-0.215,1.043-0.618l1.125-1.871l8.187-0.16
		c3.614,1.016,12.555-0.027,19.805-3.238h1.07c0.699-0.027,1.207-0.59,1.207-1.258c0-0.695-0.562-1.23-1.258-1.23l-27.422,0.485
		c-0.804,0.015-1.546,0.445-1.957,1.136l-2.898,4.883c-0.32,0.59-0.137,1.336,0.454,1.683
		C268.447,199.063,268.658,199.114,268.873,199.114z" style="fill: rgb(75, 75, 75);"></path>
	<path class="st0" d="M242.268,198.981c0.214,0.374,0.644,0.562,1.046,0.562c0.211,0,0.43-0.055,0.668-0.188
		c0.558-0.374,0.722-1.125,0.348-1.714l-3.047-4.762c-0.438-0.684-1.191-1.086-2-1.074l-27.418,0.485
		c-0.699,0-1.23,0.562-1.207,1.258c0,0.668,0.566,1.207,1.262,1.207l1.043-0.028c7.359,2.942,16.328,3.692,19.914,2.566l8.188-0.16
		L242.268,198.981z" style="fill: rgb(75, 75, 75);"></path>
	<path class="st0" d="M255.998,172.751c3.16,0,5.804-2.641,5.804-5.805c0-3.218-2.644-5.863-5.804-5.863
		c-3.219,0-5.805,2.645-5.805,5.863C250.194,170.11,252.779,172.751,255.998,172.751z M255.998,163.556
		c1.839,0,3.332,1.492,3.332,3.39c0,1.84-1.493,3.332-3.332,3.332c-1.895,0-3.332-1.492-3.332-3.332
		C252.666,165.048,254.103,163.556,255.998,163.556z" style="fill: rgb(75, 75, 75);"></path>
	<path class="st0" d="M269.166,220.446l-0.098,0.14l-0.062,0.02c-0.05,0.027-0.347,0-0.777-0.133
		c-0.238-0.27-0.481-0.535-0.774-0.832c-0.348-0.348-0.91-0.856-1.715-1.122c-0.668-0.242-1.473-0.27-2.168-0.082
		c-0.508,0.106-0.961,0.297-1.336,0.457c-2.355,0.106-4.336,0.641-5.972,1.176c-2.192-0.59-4.227-1.098-6.528-1.176
		c-0.457-0.214-0.882-0.351-1.335-0.457c-0.727-0.188-1.5-0.16-2.196,0.082c-0.777,0.266-1.339,0.774-1.687,1.122
		c-0.32,0.297-0.562,0.562-0.774,0.832c-0.43,0.133-0.726,0.16-0.805,0.133l-0.082-0.027c0,0,0,0-0.027-0.051
		c-0.055-0.054-0.16-0.242-0.211-0.562c-0.082-0.512-0.11-1.18-0.054-1.82c0-0.188,0.023-0.379,0.054-0.535
		c0-0.161,0.023-0.321,0.023-0.458l0.164-1.042c0.161-0.856,0.614-1.954,1.922-2.274c1.019-0.297,2.359-0.187,3.722,0.293h0.106
		c0.351,0.11,0.75-0.078,0.938-0.48c0.027-0.055,0.027-0.082,0.027-0.11c0.347-0.238,0.59-0.641,0.617-1.07l1.738-21.996
		c0.027-0.297-0.05-0.59-0.238-0.832c-0.218-0.242-0.484-0.375-0.804-0.402c-0.294-0.027-0.618,0.054-0.86,0.242
		c-0.238,0.214-0.371,0.48-0.398,0.774l-2.156,19.949l-0.215,1.863c-1.007-0.211-1.968-0.238-2.902-0.078
		c-0.938,0.161-1.794,0.618-2.383,1.286c-0.59,0.586-1.015,1.363-1.254,2.355l-0.274,1.098c-0.023,0.215-0.078,0.402-0.106,0.586
		c-0.027,0.187-0.078,0.374-0.106,0.566c-0.106,0.664-0.187,1.496-0.082,2.488c0.027,0.347,0.137,0.91,0.402,1.469
		c0.297,0.59,0.882,1.125,1.5,1.367c0.64,0.238,1.202,0.214,1.71,0.214c0.402-0.054,0.75-0.16,1.098-0.242l0.242-0.055
		c0.238-0.05,0.457-0.187,0.59-0.374l0.321-0.348c0.187-0.242,0.402-0.457,0.59-0.614h2.516c0.105,0,0.187,0.028,0.32,0
		c2.031,0.051,4.336,0.614,6.316,1.122c0.051,0.027,0.078,0.027,0.133,0.054l0.11,0.027c0.078,0.027,0.187,0.082,0.317,0.051
		c0.136,0,0.297,0,0.402-0.051c0.054,0,0.109-0.027,0.136-0.027h0.051c2.25-0.722,4.148-1.125,5.758-1.176h1.328l1.672,0.199
		c0.133,0.141,0.258,0.278,0.422,0.442l0.27,0.321c0.161,0.187,0.375,0.324,0.618,0.374l0.21,0.055
		c0.348,0.082,0.727,0.187,1.126,0.242h0.402c0.374,0,0.828-0.054,1.312-0.214c0.586-0.242,1.176-0.778,1.473-1.367
		c0.293-0.558,0.371-1.122,0.426-1.469c0.106-0.965,0.027-1.77-0.106-2.488l-0.082-0.566c-0.051-0.184-0.078-0.371-0.106-0.614
		l-0.293-1.07c-0.242-0.992-0.645-1.77-1.234-2.355c-0.614-0.668-1.446-1.125-2.41-1.286c-0.91-0.16-1.871-0.133-2.886,0.078
		l-2.359-21.812c-0.024-0.294-0.184-0.586-0.426-0.774c-0.214-0.188-0.507-0.27-0.804-0.242c-0.321,0-0.614,0.16-0.801,0.402
		c-0.215,0.215-0.321,0.535-0.294,0.832l1.766,22.05c0.051,0.426,0.266,0.805,0.59,0.989c0.023,0.054,0.023,0.082,0.05,0.109
		c0.055,0.215,0.191,0.375,0.375,0.454c0.187,0.109,0.402,0.109,0.562,0.054h0.082c1.363-0.48,2.726-0.59,3.746-0.293
		c1.313,0.32,1.766,1.418,1.926,2.274l0.137,1.019c0.027,0.16,0.027,0.32,0.051,0.481c0.027,0.187,0.027,0.347,0.054,0.535
		c0.054,0.64,0.027,1.285-0.078,1.82C269.283,220.239,269.205,220.368,269.166,220.446z" style="fill: rgb(75, 75, 75);"></path>
	<path class="st0" d="M270.022,232.641c-0.344,0.117-1.496-0.516-2.012-0.746c-0.633-0.344-1.32-0.691-2.125-0.977
		c-1.039-0.402-2.242-0.805-3.68-0.922c-0.289-0.058-0.515-0.058-0.746-0.058c-2.586-0.168-4.426,0.75-5.461,1.438
		c-1.035-0.688-2.871-1.606-5.52-1.438c-0.226,0-0.457,0-0.687,0.058c-1.383,0.117-2.645,0.461-3.68,0.922
		c-0.805,0.286-1.55,0.633-2.183,0.977c-1.09,0.516-1.726,0.805-1.957,0.746c-0.918-0.114-1.778,0.402-2.066,1.266
		c-0.231,0.863,0.113,1.781,0.976,2.242c0.691,0.29,1.61,0.805,2.125,1.266c0.059,1.145,0.462,2.126,1.27,2.989
		c0.168,0.226,0.398,0.457,0.688,0.574c0.226,0.286,0.574,0.458,0.918,0.574c0.746,0.402,1.722,0.688,2.817,0.863
		c0.633,0.055,1.378,0.114,2.125,0.114c0,0,0.058,0,0.117,0h0.344c3.336-0.114,4.141-0.058,4.254-0.058
		c0.344,0.058,0.633,0.058,0.805,0c0.23,0,1.035-0.055,4.371,0.058h0.286c0.804,0,1.55-0.058,2.242-0.172
		c1.09-0.117,2.066-0.402,2.871-0.805c0.348-0.172,0.691-0.347,0.922-0.574c0.286-0.175,0.516-0.347,0.688-0.574
		c0.75-0.863,1.152-1.844,1.21-2.989c0.227-0.175,0.801-0.691,2.184-1.324c0.801-0.402,1.207-1.32,0.918-2.183
		C271.744,233.044,270.885,232.528,270.022,232.641z M266.041,235.848c-0.375-0.214-0.777-0.465-1.195-0.617
		c-0.39-0.211-0.886-0.215-1.328-0.34c-0.035-0.012-0.074-0.019-0.114-0.031c-0.496-0.133-0.934-0.379-1.488-0.379
		c-0.226,0-0.457,0-0.629,0.059c-1.324,0.113-2.242,0.633-3.051,1.09c-0.746,0.402-1.374,0.75-2.238,0.75
		c-0.918,0-1.555-0.347-2.301-0.75c-0.746-0.457-1.723-0.977-3.047-1.09c-0.172-0.059-0.398-0.059-0.574-0.059
		c-1.09,0-2.125,0.344-2.988,0.75c-0.461,0.226-0.922,0.457-1.266,0.746c-0.282-0.394-0.672-0.73-1.07-1.074l0.082-0.062
		c0.175-0.078,0.332-0.141,0.472-0.188c0.462-0.226,0.977-0.515,1.497-0.687c0.976-0.461,2.066-0.805,3.332-0.977
		c0.171-0.062,0.343-0.062,0.457-0.062c2.992-0.114,4.371,1.5,4.426,1.614c0.23,0.285,0.578,0.461,0.981,0.461
		c0.343,0.054,0.687-0.176,0.976-0.461c0.058-0.059,1.438-1.727,4.367-1.614c0.176,0,0.348,0,0.516,0.062
		c1.266,0.172,2.359,0.516,3.277,0.918c0.578,0.23,1.094,0.519,1.555,0.746c0.102,0.035,0.203,0.09,0.308,0.137l0.168,0.133
		c-0.234,0.149-0.363,0.352-0.535,0.535C266.451,235.59,266.283,235.711,266.041,235.848z M263.213,237.2
		c0.375,0.133,0.734,0.309,1.062,0.5c0.43,0.214,0.789,0.48,1.027,0.703c0.016,0.019,0.043,0.027,0.055,0.046
		c-0.23,0.23-0.633,0.458-1.371,0.688c-0.633,0.171-1.61,0.343-2.875,0.285h-0.344c-1.437,0-2.586-0.054-3.39-0.054
		c-0.574,0-1.035,0-1.378,0.054c-0.805-0.054-2.242-0.054-4.77,0h-0.406c-1.262,0.058-2.184-0.114-2.871-0.285
		c-0.426-0.141-0.598-0.286-0.848-0.426c-0.136-0.105-0.367-0.171-0.449-0.324c0.274-0.218,0.582-0.477,1.008-0.687
		c0.691-0.402,1.554-0.746,2.414-0.746c0.23,0,0.402,0,0.633,0.055c0.633,0.117,1.149,0.406,1.726,0.746c0.055,0,0.055,0,0.055,0
		c0.922,0.52,1.953,1.094,3.508,1.094c1.492,0,2.527-0.574,3.39-1.035c0.054,0,0.054-0.058,0.054-0.058
		c0.578-0.285,1.153-0.57,1.786-0.746c0.23-0.055,0.461-0.055,0.687-0.055c0.414,0,0.809,0.086,1.187,0.211
		C263.138,237.176,263.174,237.188,263.213,237.2z" style="fill: rgb(75, 75, 75);"></path>
</g>
</svg>
